<svg height="512pt" viewBox="-81 0 511 512" width="512pt" xmlns="http://www.w3.org/2000/svg"><path d="m323.988281 192.199219c0 8.199219-9 15.800781-10.199219 23.601562-1.199218 8.199219 5 18 2.398438 25.597657-2.597656 7.800781-13.398438 12.203124-17 19.402343-3.796875 7.199219-.796875 18.597657-5.597656 25.199219-4.800782 6.601562-16.402344 7.398438-22.199219 13.199219-5.800781 5.800781-6.601563 17.402343-13.203125 22.199219-6.597656 4.800781-17.796875 2-25.199219 5.601562-7.199219 3.601562-11.597656 14.398438-19.398437 17-7.601563 2.398438-17.402344-3.800781-25.601563-2.398438-8 1.199219-15.398437 10.199219-23.597656 10.199219-8.203125 0-15.800781-9-23.601563-10.199219-8.199218-1.203124-18 5-25.601562 2.398438-7.796875-2.601562-12.199219-13.398438-19.398438-17-7.199218-3.800781-18.601562-.800781-25.199218-5.601562-6.601563-4.796876-7.402344-16.398438-13.199219-22.199219-5.800781-5.800781-17.402344-6.597657-22.203125-13.199219-4.796875-6.601562-2-17.800781-5.597656-25.199219-3.601563-7.199219-14.402344-11.601562-17-19.402343-2.402344-7.597657 3.800781-17.398438 2.398437-25.597657-1.199219-8-10.199219-15.402343-10.199219-23.601562s9-15.800781 10.199219-23.597657c1.199219-8.203124-5-18-2.398437-25.601562 2.597656-7.800781 13.398437-12.199219 17-19.398438 3.800781-7.203124.800781-18.601562 5.597656-25.203124 4.800781-6.597657 16.402344-7.398438 22.203125-13 5.796875-5.597657 6.597656-17.398438 13.199219-22.199219 6.597656-4.800781 17.800781-2 25.199218-5.597657 7.199219-3.601562 11.601563-14.402343 19.398438-17 7.601562-2.402343 17.402344 3.796876 25.601562 2.398438 8-1.199219 15.398438-10.199219 23.601563-10.199219 8.199219 0 15.796875 9 23.597656 10.199219 8.199219 1.199219 18-5 25.601563-2.398438 7.800781 2.597657 12.199218 13.398438 19.398437 17 7.199219 3.796876 18.601563.796876 25.199219 5.597657 6.601562 4.800781 7.402344 16.402343 13.203125 22.199219 5.796875 5.800781 17.398437 6.601562 22.199219 13 4.800781 6.601562 2 17.800781 5.597656 25.203124 3.601562 7.199219 14.402344 11.597657 17 19.398438 2.402344 7.601562-3.796875 17.398438-2.398438 25.601562 1.199219 7.796876 10.199219 15.199219 10.199219 23.597657zm0 0" fill="#fcd770"/><path d="m164.589844 307c-63.402344 0-114.800782-51.398438-114.800782-114.800781 0-63.398438 51.398438-114.800781 114.800782-114.800781 63.398437 0 114.800781 51.402343 114.800781 114.800781 0 63.402343-51.402344 114.601562-114.800781 114.800781zm0 0" fill="#ffae2c"/><path d="m164.589844 97.199219c-52.402344 0-94.800782 42.402343-94.800782 94.800781s42.398438 94.800781 94.800782 94.800781c52.398437 0 94.800781-42.402343 94.800781-94.800781 0-52.199219-42.402344-94.601562-94.800781-94.800781zm0 0" fill="#e9e9ea"/><path d="m209.390625 149.398438h-86.601563l-23 25.601562 66.199219 84.800781 66.199219-84.800781zm0 0" fill="#60bae2"/><path d="m140.390625 184 25.597656 75.800781 25.601563-75.800781zm0 0" fill="#acdef9"/><path d="m191.589844 184 17.800781-34.601562h-43.203125zm0 0" fill="#acdef9"/><path d="m166.1875 149.398438-25.796875 34.601562-17.800781-34.601562zm0 0" fill="#acdef9"/><path d="m248.988281 324c-5.398437.601562-11.398437.398438-15.800781 2.601562-7.199219 3.597657-11.597656 14.398438-19.398438 17-7.601562 2.398438-17.398437-3.800781-25.601562-2.402343-7.398438 1.199219-14.597656 9.199219-22.199219 10l72.601563 125.601562c1.199218 2.199219 4 3 6.199218 1.597657.800782-.398438 1.398438-1 1.800782-1.796876l20-37.203124 42.199218 1.402343c2.398438 0 4.601563-1.800781 4.601563-4.402343 0-.796876-.203125-1.597657-.601563-2.398438zm0 0" fill="#fc7783"/><path d="m293.1875 440.398438-64-110.796876c-5 4.796876-9 12-15.199219 14-7.597656 2.398438-17.398437-3.800781-25.597656-2.402343-1.402344.199219-2.800781.601562-4.203125 1.402343l69.601562 120.597657 6.398438-12.199219 6.203125-11.398438zm0 0" fill="#ea4647"/><path d="m140.988281 341.199219c-8.199219-1.199219-18 5-25.597656 2.402343-7.800781-2.601562-12.203125-13.402343-19.402344-17-4.398437-2.203124-10.398437-2.203124-15.800781-2.601562l-63.398438 110.199219c-1.199218 2.199219-.601562 5 1.601563 6.199219.796875.402343 1.597656.601562 2.398437.601562l42.199219-1.398438 20 37.199219c1.199219 2.199219 4 3 6.199219 1.800781.800781-.402343 1.402344-1 1.800781-1.800781l72.601563-125.601562c-8-.800781-15.199219-8.800781-22.601563-10zm0 0" fill="#fc7783"/><path d="m140.988281 341.199219c-8.199219-1.199219-18 5-25.597656 2.402343-6.203125-2-10.203125-9.203124-15.203125-14l-64 110.796876 26.800781-.796876 6.199219 11.398438 6.402344 12.199219 69.597656-120.597657c-1.199219-.601562-2.796875-1-4.199219-1.402343zm0 0" fill="#ea4647"/><path d="m54.1875 18c-9-1.800781-15.796875-8.601562-17.597656-17.601562 0-.199219-.199219-.398438-.402344-.398438-.199219 0-.199219.199219-.398438.398438-1.800781 9-8.601562 15.800781-17.601562 17.601562-.199219 0-.398438.199219-.398438.398438 0 .203124.199219.203124.398438.402343 9 1.800781 15.800781 8.597657 17.601562 17.597657 0 .203124.199219.402343.398438.402343.203125 0 .203125-.199219.402344-.402343 1.800781-9 8.597656-15.796876 17.597656-17.597657.203125 0 .402344-.199219.402344-.402343-.199219-.398438-.199219-.398438-.402344-.398438zm0 0" fill="#f75c64"/><path d="m24.589844 336.398438h-17.402344c-2.796875 0-5-2.199219-5-5 0-2.796876 2.203125-5 5-5h17.402344c2.800781 0 5 2.203124 5 5 0 2.800781-2.402344 5-5 5zm0 0" fill="#fcd770"/><path d="m15.789062 345c-2.800781 0-5-2.199219-5-5v-17.398438c0-2.800781 2.199219-5 5-5 2.800782 0 5 2.199219 5 5v17.398438c0 2.800781-2.199218 5-5 5zm0 0" fill="#fcd770"/><path d="m321.789062 503.398438h-17.398437c-2.800781 0-5-2.199219-5-5 0-2.796876 2.199219-5 5-5h17.398437c2.800782 0 5 2.203124 5 5 0 2.800781-2.199218 5-5 5zm0 0" fill="#60bae2"/><path d="m313.1875 512c-2.796875 0-5-2.199219-5-5v-17.398438c0-2.800781 2.203125-5 5-5 2.800781 0 5 2.199219 5 5v17.398438c0 2.800781-2.199219 5-5 5zm0 0" fill="#60bae2"/><path d="m5.390625 392.398438c-1.402344 0-2.601563-.597657-3.601563-1.398438-.199218-.199219-.398437-.398438-.601562-.800781-.199219-.199219-.398438-.597657-.398438-.800781-.199218-.398438-.199218-.597657-.199218-1 0-.398438-.199219-.597657 0-1 0-.398438 0-.597657 0-1 0-.398438.199218-.597657.199218-1 .199219-.398438.199219-.597657.398438-.796876.203125-.203124.402344-.601562.601562-.800781 1.398438-1.402343 3.601563-1.800781 5.398438-1 .203125.199219.601562.199219.800781.398438s.601563.402343.800781.601562c.199219.199219.398438.398438.601563.800781.199219.199219.398437.597657.398437.796876.199219.203124.199219.601562.199219 1v1 1c0 .402343-.199219.601562-.199219 1-.199218.402343-.199218.601562-.398437.800781-.203125.199219-.402344.601562-.601563.800781-.199218.199219-.398437.398438-.800781.601562-.199219.199219-.597656.398438-.800781.398438-.398438.199219-.597656.199219-1 .199219-.199219 0-.597656.199219-.796875.199219zm0 0" fill="#6dcc6d"/><path d="m344.1875 459c-1.398438 0-2.597656-.601562-3.597656-1.398438-.199219-.203124-.402344-.402343-.601563-.800781-.199219-.199219-.398437-.601562-.398437-.800781-.199219-.398438-.199219-.601562-.199219-1s-.203125-.601562-.203125-1 0-.601562.203125-1c0-.398438.199219-.601562.199219-1 .199218-.398438.199218-.601562.398437-.800781s.402344-.597657.601563-.800781c1.398437-1.398438 3.597656-1.796876 5.398437-1 .199219.203124.601563.203124.800781.402343.199219.199219.601563.398438.800782.597657.199218.203124.398437.402343.597656.800781.203125.199219.402344.601562.402344.800781.199218.199219.199218.601562.199218 1s0 .601562.199219 1c0 .398438 0 .601562-.199219 1 0 .398438-.199218.601562-.199218 1-.199219.398438-.199219.601562-.402344.800781-.199219.199219-.398438.597657-.597656.800781-.199219.199219-.402344.398438-.800782.597657-.199218.199219-.601562.402343-.800781.402343-.398437.199219-.597656.199219-1 .199219 0 .199219-.398437.199219-.800781.199219zm0 0" fill="#fcd770"/><g fill="#231f20"><path d="m164.589844 356.398438c-5.800782 0-11-3.199219-15.601563-6-2.597656-2-5.597656-3.398438-8.800781-4.199219-3.398438-.199219-6.796875.199219-10 1.402343-5 1.199219-10.796875 2.597657-16.398438.796876-5.601562-1.796876-9.398437-6.398438-12.800781-10.398438-2-2.800781-4.398437-5-7.199219-6.800781-3.199218-1.199219-6.601562-1.800781-9.800781-1.800781-5.199219-.398438-11.199219-.796876-15.800781-4.199219-4.597656-3.398438-7-9-9-13.800781-1-3.199219-2.597656-6.199219-4.796875-8.796876-2.601563-2-5.601563-3.800781-8.800781-4.800781-4.800782-2-10.402344-4.199219-13.800782-9-3.398437-4.800781-3.800781-10.601562-4.199218-15.800781 0-3.398438-.601563-6.800781-1.800782-9.800781-1.800781-2.800781-4.199218-5.199219-6.800781-7.199219-4-3.398438-8.597656-7.398438-10.398437-12.800781-1.800782-5.398438-.402344-11.199219.800781-16.398438 1-3.199219 1.597656-6.601562 1.398437-10-.800781-3.199219-2.398437-6.199219-4.199218-8.800781-2.800782-4.601562-6-9.601562-6-15.601562s3.199218-11 6-15.597657c2-2.601562 3.398437-5.601562 4.199218-8.800781.199219-3.398438-.199218-6.800781-1.398437-10-1.203125-5-2.601563-10.800781-.800781-16.398438 1.800781-5.601562 6.398437-9.402343 10.398437-12.800781 2.601563-2 5-4.402343 6.800781-7.199219 1.199219-3.203124 1.800782-6.601562 1.800782-9.800781.398437-5.199219.800781-11.199219 4.199218-15.800781 3.398438-4.601562 9-7 13.800782-9 3.199218-1 6.199218-2.601562 8.800781-4.800781 2-2.597657 3.796875-5.597657 4.796875-8.800781 2-4.796876 4.203125-10.398438 9-13.796876 4.800781-3.402343 10.601562-3.800781 15.800781-4.203124 3.402344 0 6.800781-.597657 9.800781-1.796876 2.800782-1.800781 5.199219-4.203124 7.199219-6.800781 3.402344-4 7.402344-8.601562 12.800781-10.402343 5.398438-1.796876 11.199219-.398438 16.398438.800781 3.203125 1 6.601562 1.601562 10 1.402343 3.203125-.800781 6.203125-2.402343 8.800781-4.203124 4.601563-2.796876 9.601563-6 15.601563-6s11 3.203124 15.597656 6c2.601562 2 5.601562 3.402343 8.800781 4.203124 3.402344.199219 6.800781-.203124 10-1.402343 5-1.199219 10.800781-2.597657 16.402344-.800781 5.597656 1.800781 9.398437 6.402343 12.796875 10.402343 2 2.800781 4.402344 5 7.203125 6.800781 3.199219 1.199219 6.597656 1.796876 9.796875 1.796876 5.203125.402343 11.203125.800781 15.800781 4.203124 4.601563 3.398438 7 9 9 13.796876 1 3.203124 2.601563 6.203124 4.800781 8.800781 2.601563 2 5.601563 3.800781 8.800782 4.800781 4.800781 2 10.398437 4.199219 13.800781 9 3.398437 4.800781 3.796875 10.601562 4.199219 15.800781 0 3.398438.597656 6.800781 1.800781 9.800781 1.796875 2.796876 4.199219 5.199219 6.796875 7.199219 4 3.398438 8.601562 7.398438 10.402344 12.800781 1.800781 5.398438.398437 11.199219-.800782 16.398438-1 3.199219-1.601562 6.601562-1.398437 10 .796875 3.199219 2.398437 6.199219 4.199219 8.800781 2.800781 4.597657 6 9.597657 6 15.597657s-3.199219 11-6 15.601562c-2 2.601562-3.402344 5.601562-4.199219 8.800781-.203125 3.398438.199219 6.800781 1.398437 10 1.199219 5 2.601563 10.800781.800782 16.398438-1.800782 5.601562-6.402344 9.402343-10.402344 12.800781-2.597656 2-5 4.398438-6.796875 7.199219-1.203125 3.199219-1.800781 6.601562-1.800781 9.800781-.402344 5.199219-.800782 11.199219-4.199219 15.800781-3.402344 4.597657-9 7-13.800781 9-3.199219 1-6.199219 2.597657-8.800782 4.800781-2 2.597657-3.800781 5.597657-4.800781 8.796876-2 4.800781-4.199219 10.402343-9 13.800781-4.800781 3.402343-10.597656 3.800781-15.800781 4.199219-3.398438 0-6.796875.601562-9.796875 1.800781-2.800781 1.800781-5.203125 4.199219-7.203125 6.800781-3.398438 4-7.398438 8.601562-12.796875 10.398438-5.402344 1.800781-11.203125.402343-16.402344-.796876-3.199219-1-6.597656-1.601562-10-1.402343-3.199219.800781-6.199219 2.402343-8.800781 4.199219-4.597656 2.800781-9.597656 6-15.597656 6zm-26-20.398438c1 0 2.199218 0 3.199218.199219 4.601563 1 8.800782 3 12.601563 5.601562 3.796875 2.398438 7.199219 4.398438 10.199219 4.398438s6.597656-2.199219 10.199218-4.398438c3.800782-2.800781 8-4.601562 12.601563-5.601562 4.796875-.398438 9.398437 0 14 1.601562 4.199219 1 8.199219 2 10.796875 1 2.800781-1 5.601562-4 8.402344-7.402343 2.800781-3.796876 6.199218-7 10.199218-9.398438 4.398438-1.800781 9-2.800781 13.601563-2.800781 4.398437-.398438 8.398437-.597657 10.796875-2.398438 2.402344-1.800781 4-5.601562 5.601562-9.601562 1.398438-4.398438 3.800782-8.597657 7-12.199219 3.601563-3 7.601563-5.398438 12.199219-7 4-1.601562 7.800781-3.199219 9.601563-5.601562 1.800781-2.398438 2-6.398438 2.398437-10.796876 0-4.800781 1-9.402343 2.800781-13.601562 2.398438-4 5.601563-7.398438 9.398438-10.199219 3.402344-2.800781 6.402344-5.402343 7.402344-8.402343.800781-2.796876 0-6.597657-1-10.796876-1.402344-4.601562-2-9.203124-1.601563-14 1-4.601562 3-8.800781 5.601563-12.601562 2.398437-3.800781 4.398437-7.199219 4.398437-10.199219s-2.199219-6.601562-4.398437-10.199219c-2.800782-3.800781-4.601563-8-5.601563-12.601562-.398437-4.800781 0-9.398438 1.601563-14 1-4.199219 2-8.199219 1-10.800781-1-2.800781-4-5.597657-7.402344-8.398438-3.796875-2.800781-7-6.199219-9.398438-10.199219-1.800781-4.402343-2.800781-9-2.800781-13.601562-.398437-4.398438-.597656-8.398438-2.398437-10.800781-1.800782-2.398438-5.601563-4-9.601563-5.597657-4.398437-1.402343-8.597656-3.800781-12.199219-7-3-3.601562-5.398437-7.601562-7-12-1.601562-4-3.199218-7.800781-5.601562-9.601562-2.398438-1.800781-6.398438-2-10.796875-2.398438-4.800781 0-9.402344-1-13.601563-2.800781-4-2.402343-7.398437-5.601562-10.199218-9.402343-2.800782-3.398438-5.402344-6.398438-8.402344-7.398438-2.796875-.800781-6.597656 0-10.796875 1-4.601563 1.398438-9.203125 2-14 1.601562-4.601563-1-8.800781-3-12.601563-5.601562-3.800781-2.398438-7.199218-4.398438-10.199218-4.398438s-6.601563 2.199219-10.199219 4.398438c-3.800781 2.601562-8 4.601562-12.601563 5.601562-4.800781.398438-9.398437 0-14-1.601562-4.199218-1-8.199218-2-10.800781-1-2.800781 1-5.597656 4-8.398437 7.398438-2.800782 3.800781-6.199219 7-10.199219 9.402343-4.402344 1.800781-9 2.800781-13.601563 2.800781-4.398437.398438-8.398437.597657-10.800781 2.398438-2.398437 1.800781-4 5.601562-5.597656 9.601562-1.402344 4.398438-3.800781 8.597657-7 12-3.601563 3-7.601563 5.398438-12.203125 7-4 1.597657-7.796875 3.199219-9.597656 5.597657-1.800782 2.402343-2 6.402343-2.402344 10.800781 0 4.800781-1 9.398438-2.796875 13.601562-2.402344 4-5.601563 7.398438-9.402344 10.199219-3.398437 2.800781-6.398437 5.398438-7.398437 8.398438-.800782 2.800781 0 6.601562 1 10.800781 1.398437 4.601562 2 9.199219 1.597656 14-1 4.601562-3 8.800781-5.597656 12.601562-2.402344 3.796876-4.402344 7.199219-4.402344 10.199219s2.203125 6.597657 4.402344 10.199219c2.597656 3.800781 4.597656 8 5.597656 12.601562.402344 4.796876 0 9.398438-1.597656 14-1 4.199219-2 8.199219-1 10.796876 1 2.800781 4 5.601562 7.398437 8.402343 3.800781 2.800781 7 6.199219 9.402344 10.199219 1.796875 4.398438 2.796875 9 2.796875 13.601562.402344 4.398438.601562 8.398438 2.402344 10.796876 1.800781 2.402343 5.597656 4 9.597656 5.601562 4.402344 1.398438 8.601562 3.800781 12.203125 7 3 3.601562 5.398437 7.601562 7 12.199219 1.597656 4 3.199219 7.800781 5.597656 9.601562 2.402344 1.800781 6.402344 2 10.800781 2.398438 4.800782 0 9.398438 1 13.601563 2.800781 4 2.398438 7.398437 5.601562 10.199219 9.398438 2.800781 3.402343 5.398437 6.402343 8.398437 7.402343 2.800781.800781 6.601563 0 10.800781-1 3.601563-1 7.199219-1.601562 10.800782-1.800781zm0 0"/><path d="m164.589844 312c-66.199219 0-119.800782-53.601562-119.800782-119.800781s53.601563-119.800781 119.800782-119.800781c66.199218 0 119.800781 53.601562 119.800781 119.800781 0 66-53.601563 119.601562-119.800781 119.800781zm0-229.800781c-60.601563 0-109.800782 49.199219-109.800782 110s49.199219 109.800781 109.800782 109.800781c60.597656 0 109.800781-49.199219 109.800781-109.800781 0-60.800781-49.203125-109.800781-109.800781-110zm0 0"/><path d="m242.390625 484.199219c-3.402344 0-6.601563-1.800781-8.203125-4.800781l-72.597656-125.597657c-1.402344-2.402343-.601563-5.402343 1.800781-6.800781.597656-.398438 1.199219-.601562 2-.601562 2.796875-.398438 6-2.398438 9.398437-4.398438 3.800782-2.601562 8-4.601562 12.601563-5.601562 4.796875-.398438 9.398437 0 14 1.601562 4.199219 1 8.199219 2 10.796875 1 2.800781-1 5.601562-4 8.402344-7.398438 2.800781-3.800781 6.199218-7 10.199218-9.402343 4.398438-1.800781 9-2.800781 13.800782-2.800781 1.199218 0 2.597656-.199219 3.800781-.398438 2-.199219 3.796875.800781 4.796875 2.398438l63.601562 110.203124c2.601563 4.597657 1 10.398438-3.398437 13-1.601563.796876-3.203125 1.398438-5 1.199219l-39-1.199219-18.402344 34.398438c-1.800781 3.199219-5 5.199219-8.597656 5.199219zm-69-130 69 119.402343 19.597656-36.402343c1-1.597657 2.601563-2.597657 4.601563-2.597657l41.398437 1.398438-61.597656-106.800781h-.800781c-3.402344 0-6.800782.601562-10 1.800781-2.800782 1.800781-5.199219 4.199219-7.199219 6.800781-3.402344 4-7.402344 8.597657-12.800781 10.398438-5.402344 1.800781-11.199219.402343-16.402344-.800781-3.199219-1-6.597656-1.597657-10-1.398438-3.199219.800781-6.199219 2.398438-8.796875 4.199219-2.402344 1.601562-4.601563 3-7 4zm0 0"/><path d="m253.789062 468.199219c-1.800781 0-3.398437-1-4.398437-2.398438l-69.601563-120.601562c-1.398437-2.398438-.601562-5.398438 1.800782-6.800781.199218 0 .398437-.199219.398437-.199219 1.800781-.800781 3.601563-1.398438 5.402344-1.597657 4.796875-.402343 9.398437 0 14 1.597657 4.199219 1 8.199219 2 10.796875 1 2.800781-1 5.601562-4 8.402344-7.398438 1.597656-2 3.199218-3.800781 5-5.601562 2-1.800781 5.199218-1.800781 7 .199219.199218.203124.398437.601562.597656 1l64 110.800781c1.402344 2.402343.601562 5.402343-1.796875 6.800781-.800781.398438-1.800781.601562-2.601563.601562l-23.601562-.800781-11.199219 20.800781c-.800781 1.597657-2.398437 2.597657-4.199219 2.597657zm-62-122 61.601563 106.800781 8.398437-15.601562c1-1.597657 2.601563-2.597657 4.601563-2.597657l17.796875.597657-56-97.199219c-3.398438 4-7.199219 8.601562-12.796875 10.402343-5.402344 1.796876-11.203125.398438-16.402344-.800781-2.199219-1-4.597656-1.402343-7.199219-1.601562zm0 0"/><path d="m86.789062 484.199219c-3.601562 0-6.800781-2-8.398437-5l-18.402344-34.398438-39 1.199219c-5.199219.199219-9.597656-4-9.800781-9.199219 0-1.800781.402344-3.601562 1.203125-5l63.597656-110.199219c1-1.800781 3-2.601562 4.800781-2.402343 1.199219.199219 2.398438.199219 3.800782.402343 4.800781 0 9.398437 1 13.800781 2.796876 4 2.402343 7.398437 5.601562 10.199219 9.402343 2.800781 3.398438 5.398437 6.398438 8.398437 7.398438 2.800781.800781 6.601563 0 10.800781-1 4.601563-1.398438 9.199219-2 14-1.597657 4.601563 1 8.800782 3 12.601563 5.597657 3.398437 2.199219 6.597656 4.199219 9.398437 4.402343 2.800782.398438 4.800782 2.796876 4.398438 5.597657 0 .601562-.199219 1.402343-.597656 2l-72.601563 125.601562c-1.597656 2.597657-4.800781 4.398438-8.199219 4.398438zm-23.800781-49.597657c1.800781 0 3.601563 1 4.402344 2.597657l19.597656 36.402343 69-119.402343c-2.398437-1.199219-4.597656-2.398438-6.800781-3.800781-2.597656-2-5.597656-3.398438-8.796875-4.199219-3.402344-.199219-6.800781.199219-10 1.402343-5 1.199219-10.800781 2.597657-16.402344.796876-5.597656-1.796876-9.398437-6.398438-12.800781-10.398438-2-2.800781-4.398438-5-7.199219-6.800781-3.199219-1.199219-6.597656-1.800781-10-1.800781h-.800781l-61.796875 106.601562zm0 0"/><path d="m75.589844 468.199219c-1.800782 0-3.601563-1-4.402344-2.597657l-11.199219-20.800781-23.597656.800781c-2.800781 0-5-2-5.203125-4.800781 0-1 .203125-1.800781.601562-2.601562l64-110.800781c1.398438-2.398438 4.398438-3.199219 6.800782-1.796876.398437.199219.597656.398438 1 .597657 1.800781 1.800781 3.398437 3.601562 5 5.601562 2.800781 3.398438 5.398437 6.398438 8.398437 7.398438 2.800781.800781 6.601563 0 10.800781-1 4.601563-1.398438 9.199219-2 14-1.597657 1.800782.398438 3.800782.796876 5.398438 1.597657 2.601562 1.199219 3.601562 4 2.601562 6.601562 0 .199219-.199218.398438-.199218.398438l-69.601563 120.601562c-1 1.398438-2.597656 2.398438-4.398437 2.398438zm-12.601563-33.597657c1.800781 0 3.601563 1 4.402344 2.597657l8.398437 15.601562 61.601563-106.800781c-2.402344.199219-4.800781.800781-7.203125 1.398438-5 1.203124-10.796875 2.601562-16.398438.800781-5.601562-1.800781-9.398437-6.398438-12.800781-10.398438l-56 97zm0 0"/><path d="m191.589844 189h-51.199219c-.402344 0-.800781 0-1-.199219l-40.601563-8.800781c-2.601562-.601562-4.398437-3.199219-3.800781-6 .199219-.800781.601563-1.601562 1.199219-2.199219l22.800781-25.601562c1-1 2.402344-1.597657 3.800781-1.597657h86.601563c1.398437 0 2.796875.597657 3.796875 1.597657l22.800781 25.601562c1.800781 2 1.601563 5.199219-.398437 7-.601563.597657-1.402344 1-2.199219 1.199219l-40.601563 8.800781c-.398437 0-.800781.199219-1.199218.199219zm-50.601563-10h50l31.800781-7-15.601562-17.398438h-82.199219l-15.800781 17.398438zm0 0"/><path d="m165.988281 264.800781c-1.597656 0-3-.800781-4-2l-66-84.601562c-1.398437-2-1.398437-4.597657.199219-6.398438l22.800781-25.601562c1-1 2.402344-1.597657 3.800781-1.597657h86.601563c1.398437 0 2.796875.597657 3.796875 1.597657l22.800781 25.601562c1.601563 1.800781 1.601563 4.398438.199219 6.398438l-66.199219 84.800781c-1 1.199219-2.398437 1.800781-4 1.800781zm-59.597656-89.601562 59.597656 76.402343 59.601563-76.402343-18.601563-20.800781h-82.199219zm0 0"/><path d="m165.988281 264.800781c-2.199219 0-4-1.402343-4.800781-3.402343l-25.597656-76c-.800782-2.597657.597656-5.398438 3.199218-6.398438.601563-.199219 1-.199219 1.601563-.199219h51.199219c2.800781 0 5 2.199219 5 5 0 .597657 0 1-.199219 1.597657l-25.601563 76c-.800781 2-2.601562 3.402343-4.800781 3.402343zm-18.597656-75.800781 18.597656 55.199219 18.601563-55.199219zm0 0"/><path d="m191.589844 189c-1.601563 0-3-.800781-4-2l-25.402344-34.398438c-1.597656-2.203124-1.199219-5.402343 1-7 .800781-.601562 1.800781-1 3-1h43c2.800781 0 5 2.199219 5 5 0 .796876-.199219 1.597657-.597656 2.199219l-17.800782 34.398438c-.800781 1.601562-2.398437 2.601562-4 2.601562 0 .199219 0 .199219-.199218.199219zm-15.402344-34.601562 14.601562 20 10.199219-20zm0 0"/><path d="m140.390625 189c-.203125 0-.203125 0-.402344 0-1.800781-.199219-3.199219-1.199219-4-2.601562l-17.800781-34.398438c-1.199219-2.398438-.398438-5.398438 2.203125-6.800781.796875-.398438 1.398437-.597657 2.199219-.597657h43.597656c2.800781 0 5 2.199219 5 5 0 1-.398438 2.199219-1 3l-25.796875 34.398438c-1 1.199219-2.402344 2-4 2zm-9.601563-34.601562 10.398438 20 15-20zm0 0"/><path d="m164.589844 292c-55 0-99.800782-44.800781-99.800782-99.800781s44.800782-99.800781 99.800782-99.800781 99.800781 44.800781 99.800781 99.800781-44.601563 99.800781-99.800781 99.800781zm0-189.800781c-49.601563 0-89.800782 40.199219-89.800782 90s40.199219 89.800781 89.800782 89.800781c49.597656 0 89.800781-40.199219 89.800781-89.800781 0-49.597657-40.203125-89.800781-89.800781-90zm0 0"/></g></svg>